<?xml version="1.0" encoding="UTF-8" standalone="no"?>
<!-- Generator: Adobe Illustrator 19.0.0, SVG Export Plug-In . SVG Version: 6.00 Build 0)  -->

<svg
   xmlns:dc="http://purl.org/dc/elements/1.1/"
   xmlns:cc="http://creativecommons.org/ns#"
   xmlns:rdf="http://www.w3.org/1999/02/22-rdf-syntax-ns#"
   xmlns:svg="http://www.w3.org/2000/svg"
   xmlns="http://www.w3.org/2000/svg"
   xmlns:sodipodi="http://sodipodi.sourceforge.net/DTD/sodipodi-0.dtd"
   xmlns:inkscape="http://www.inkscape.org/namespaces/inkscape"
   version="1.1"
   id="Layer_1"
   x="0px"
   y="0px"
   viewBox="0 0 400 400"
   xml:space="preserve"
   sodipodi:docname="mpsoc-mpi.svg"
   width="400"
   height="400"
   inkscape:version="0.92.4 5da689c313, 2019-01-14"><metadata
   id="metadata43"><rdf:RDF><cc:Work
       rdf:about=""><dc:format>image/svg+xml</dc:format><dc:type
         rdf:resource="http://purl.org/dc/dcmitype/StillImage" /><dc:title></dc:title></cc:Work></rdf:RDF></metadata><defs
   id="defs41" /><sodipodi:namedview
   pagecolor="#ffffff"
   bordercolor="#666666"
   borderopacity="1"
   objecttolerance="10"
   gridtolerance="10"
   guidetolerance="10"
   inkscape:pageopacity="0"
   inkscape:pageshadow="2"
   inkscape:window-width="1533"
   inkscape:window-height="845"
   id="namedview39"
   showgrid="false"
   inkscape:zoom="0.06441048"
   inkscape:cx="-3667.3232"
   inkscape:cy="1459.187"
   inkscape:window-x="67"
   inkscape:window-y="27"
   inkscape:window-maximized="1"
   inkscape:current-layer="Layer_1" />
<g
   id="g6"
   transform="matrix(0.87336245,0,0,1.0668573,0,-44.31087)">
	<g
   id="g4">
		<path
   d="M 428,41.534 H 30 c -16.569,0 -30,13.431 -30,30 v 252 c 0,16.568 13.432,30 30,30 h 132.1 l 43.942,52.243 c 5.7,6.777 14.103,10.69 22.959,10.69 8.856,0 17.258,-3.912 22.959,-10.69 l 43.942,-52.243 H 428 c 16.568,0 30,-13.432 30,-30 v -252 c 0,-16.569 -13.432,-30 -30,-30 z m -104.084,240 H 82.854 c -8.284,0 -15,-6.716 -15,-15 0,-8.284 6.716,-15 15,-15 h 241.062 c 8.284,0 15,6.716 15,15 0,8.284 -6.716,15 -15,15 z M 67.854,198.755 c 0,-8.284 6.716,-15 15,-15 h 185.103 c 8.284,0 15,6.716 15,15 0,8.284 -6.716,15 -15,15 H 82.854 c -8.284,0 -15,-6.716 -15,-15 z M 375.146,145.974 H 82.854 c -8.284,0 -15,-6.716 -15,-15 0,-8.284 6.716,-15 15,-15 h 292.291 c 8.284,0 15,6.716 15,15 0.001,8.284 -6.715,15 -14.999,15 z"
   id="path2"
   inkscape:connector-curvature="0" />
	</g>
</g>
<g
   id="g8"
   transform="translate(0,-58)">
</g>
<g
   id="g10"
   transform="translate(0,-58)">
</g>
<g
   id="g12"
   transform="translate(0,-58)">
</g>
<g
   id="g14"
   transform="translate(0,-58)">
</g>
<g
   id="g16"
   transform="translate(0,-58)">
</g>
<g
   id="g18"
   transform="translate(0,-58)">
</g>
<g
   id="g20"
   transform="translate(0,-58)">
</g>
<g
   id="g22"
   transform="translate(0,-58)">
</g>
<g
   id="g24"
   transform="translate(0,-58)">
</g>
<g
   id="g26"
   transform="translate(0,-58)">
</g>
<g
   id="g28"
   transform="translate(0,-58)">
</g>
<g
   id="g30"
   transform="translate(0,-58)">
</g>
<g
   id="g32"
   transform="translate(0,-58)">
</g>
<g
   id="g34"
   transform="translate(0,-58)">
</g>
<g
   id="g36"
   transform="translate(0,-58)">
</g>
</svg>